<svg width="99" height="48" viewBox="0 0 99 48" fill="none" xmlns="http://www.w3.org/2000/svg">
<path d="M9.02 32.1C9.02 32.14 8.98 32.16 8.9 32.16C8.83333 32.16 8.8 32.14 8.8 32.1C8.8 31.42 8.62 30.88 8.26 30.48C7.9 30.08 7.42667 29.88 6.84 29.88H5.46C4.96667 29.88 4.6 29.9133 4.36 29.98C4.12 30.0467 3.95333 30.1667 3.86 30.34C3.76667 30.5133 3.72 30.78 3.72 31.14V35.54H5.9C6.58 35.54 7.06 35.44 7.34 35.24C7.62 35.0267 7.76 34.6667 7.76 34.16C7.76 34.1333 7.8 34.12 7.88 34.12C7.96 34.12 8 34.1333 8 34.16L7.98 35.74C7.98 36.1267 7.98667 36.4133 8 36.6L8.02 37.54C8.02 37.5667 7.98 37.58 7.9 37.58C7.82 37.58 7.78 37.5667 7.78 37.54C7.78 36.94 7.63333 36.52 7.34 36.28C7.06 36.04 6.55333 35.92 5.82 35.92H3.72V40.3C3.72 40.7267 3.78 41.04 3.9 41.24C4.02 41.4267 4.24667 41.56 4.58 41.64C4.92667 41.72 5.47333 41.76 6.22 41.76C6.26 41.76 6.28 41.8 6.28 41.88C6.28 41.96 6.26 42 6.22 42C5.67333 42 5.24667 41.9933 4.94 41.98L3.2 41.96L1.88 41.98C1.64 41.9933 1.30667 42 0.88 42C0.853333 42 0.84 41.96 0.84 41.88C0.84 41.8 0.853333 41.76 0.88 41.76C1.4 41.76 1.78 41.7267 2.02 41.66C2.27333 41.5933 2.44 41.4667 2.52 41.28C2.61333 41.08 2.66 40.78 2.66 40.38V31.12C2.66 30.72 2.61333 30.4267 2.52 30.24C2.44 30.0533 2.27333 29.9267 2.02 29.86C1.78 29.78 1.4 29.74 0.88 29.74C0.853333 29.74 0.84 29.7 0.84 29.62C0.84 29.54 0.853333 29.5 0.88 29.5H8.8C8.92 29.5 8.98 29.56 8.98 29.68L9.02 32.1ZM17.6772 40.3C17.6772 40.6867 17.7172 40.9733 17.7972 41.16C17.8905 41.3333 18.0505 41.4533 18.2772 41.52C18.5172 41.5867 18.8905 41.62 19.3972 41.62H21.9572C23.2772 41.62 24.0572 40.7733 24.2972 39.08C24.2972 39.04 24.3305 39.0267 24.3972 39.04C24.4772 39.04 24.5172 39.06 24.5172 39.1C24.3972 40.1533 24.3372 41.02 24.3372 41.7C24.3372 41.8067 24.3172 41.8867 24.2772 41.94C24.2372 41.98 24.1572 42 24.0372 42H14.8372C14.8105 42 14.7972 41.96 14.7972 41.88C14.7972 41.8 14.8105 41.76 14.8372 41.76C15.3572 41.76 15.7372 41.7267 15.9772 41.66C16.2305 41.5933 16.3972 41.4667 16.4772 41.28C16.5705 41.08 16.6172 40.78 16.6172 40.38V31.12C16.6172 30.72 16.5705 30.4267 16.4772 30.24C16.3972 30.0533 16.2305 29.9267 15.9772 29.86C15.7372 29.78 15.3572 29.74 14.8372 29.74C14.8105 29.74 14.7972 29.7 14.7972 29.62C14.7972 29.54 14.8105 29.5 14.8372 29.5L15.8172 29.52C16.3772 29.5467 16.8172 29.56 17.1372 29.56C17.4972 29.56 17.9572 29.5467 18.5172 29.52L19.4572 29.5C19.4839 29.5 19.4972 29.54 19.4972 29.62C19.4972 29.7 19.4839 29.74 19.4572 29.74C18.9372 29.74 18.5505 29.78 18.2972 29.86C18.0572 29.9267 17.8905 30.06 17.7972 30.26C17.7172 30.4467 17.6772 30.74 17.6772 31.14V40.3ZM36.0427 42.24C34.8027 42.24 33.696 41.9533 32.7227 41.38C31.7627 40.7933 31.016 40.0067 30.4827 39.02C29.9627 38.02 29.7027 36.9333 29.7027 35.76C29.7027 34.3867 30.0493 33.2133 30.7427 32.24C31.436 31.2533 32.3227 30.5133 33.4027 30.02C34.496 29.5267 35.6093 29.28 36.7427 29.28C38.0093 29.28 39.1227 29.58 40.0827 30.18C41.0427 30.7667 41.776 31.5467 42.2827 32.52C42.8027 33.4933 43.0627 34.5267 43.0627 35.62C43.0627 36.8333 42.7427 37.9467 42.1027 38.96C41.4627 39.9733 40.6027 40.7733 39.5227 41.36C38.456 41.9467 37.296 42.24 36.0427 42.24ZM36.7627 41.84C37.7093 41.84 38.5627 41.62 39.3227 41.18C40.0827 40.74 40.6827 40.0933 41.1227 39.24C41.5627 38.3867 41.7827 37.3667 41.7827 36.18C41.7827 34.9267 41.536 33.8133 41.0427 32.84C40.5627 31.8533 39.876 31.0867 38.9827 30.54C38.1027 29.9933 37.076 29.72 35.9027 29.72C34.356 29.72 33.1493 30.2 32.2827 31.16C31.416 32.12 30.9827 33.4267 30.9827 35.08C30.9827 36.32 31.2227 37.46 31.7027 38.5C32.196 39.5267 32.8827 40.34 33.7627 40.94C34.6427 41.54 35.6427 41.84 36.7627 41.84ZM66.3464 29.5C66.3864 29.5 66.4064 29.54 66.4064 29.62C66.4064 29.7 66.3864 29.74 66.3464 29.74C65.8931 29.74 65.5131 29.84 65.2064 30.04C64.9131 30.2267 64.6531 30.5867 64.4264 31.12L60.0264 41.98C60.0131 42.0333 59.9397 42.06 59.8064 42.06C59.6997 42.06 59.6264 42.0333 59.5864 41.98L56.9664 36.24L54.6464 41.98C54.6331 42.0333 54.5597 42.06 54.4264 42.06C54.3197 42.06 54.2464 42.0333 54.2064 41.98L49.2664 31.16C49.0397 30.64 48.7931 30.2733 48.5264 30.06C48.2731 29.8467 47.9397 29.74 47.5264 29.74C47.4864 29.74 47.4664 29.7 47.4664 29.62C47.4664 29.54 47.4864 29.5 47.5264 29.5L48.3864 29.52C48.7597 29.5467 49.0397 29.56 49.2264 29.56C49.6131 29.56 50.0731 29.5467 50.6064 29.52L51.4664 29.5C51.5064 29.5 51.5264 29.54 51.5264 29.62C51.5264 29.7 51.5064 29.74 51.4664 29.74C51.0531 29.74 50.7397 29.7867 50.5264 29.88C50.3131 29.9733 50.2064 30.14 50.2064 30.38C50.2064 30.5133 50.2597 30.7067 50.3664 30.96L54.7864 40.5L56.7264 35.72L54.6464 31.16C54.4197 30.64 54.1731 30.2733 53.9064 30.06C53.6531 29.8467 53.3197 29.74 52.9064 29.74C52.8664 29.74 52.8464 29.7 52.8464 29.62C52.8464 29.54 52.8664 29.5 52.9064 29.5L53.7664 29.52C54.1397 29.5467 54.4197 29.56 54.6064 29.56C54.8864 29.56 55.2131 29.5467 55.5864 29.52L56.1464 29.5C56.1864 29.5 56.2064 29.54 56.2064 29.62C56.2064 29.7 56.1864 29.74 56.1464 29.74C55.8797 29.74 55.6931 29.76 55.5864 29.8C55.4797 29.84 55.4264 29.92 55.4264 30.04C55.4264 30.16 55.5331 30.4667 55.7464 30.96L57.3464 34.4L58.7264 31C58.8464 30.72 58.9064 30.4867 58.9064 30.3C58.9064 30.1 58.8264 29.96 58.6664 29.88C58.5197 29.7867 58.2797 29.74 57.9464 29.74C57.9197 29.74 57.9064 29.7 57.9064 29.62C57.9064 29.54 57.9197 29.5 57.9464 29.5L58.5064 29.52C58.7731 29.5467 59.0264 29.56 59.2664 29.56C59.5331 29.56 59.8397 29.5467 60.1864 29.52L61.0464 29.5C61.0731 29.5 61.0864 29.54 61.0864 29.62C61.0864 29.7 61.0731 29.74 61.0464 29.74C60.5931 29.74 60.2131 29.84 59.9064 30.04C59.5997 30.2267 59.3397 30.5867 59.1264 31.12L57.5864 34.92L60.1664 40.5L64.0264 31C64.1197 30.8 64.1664 30.6067 64.1664 30.42C64.1664 30.18 64.0397 30.0067 63.7864 29.9C63.5464 29.7933 63.1397 29.74 62.5664 29.74C62.5264 29.74 62.5064 29.7 62.5064 29.62C62.5064 29.54 62.5264 29.5 62.5664 29.5L63.3664 29.52C63.8197 29.5467 64.2197 29.56 64.5664 29.56C64.8464 29.56 65.1597 29.5467 65.5064 29.52L66.3464 29.5ZM79.6773 39.08C79.6773 39.04 79.7173 39.0267 79.7973 39.04C79.8773 39.04 79.9173 39.06 79.9173 39.1C79.7973 39.94 79.7373 40.8067 79.7373 41.7C79.7373 41.8067 79.7107 41.8867 79.6573 41.94C79.6173 41.98 79.5373 42 79.4173 42H71.1573C71.1307 42 71.1173 41.96 71.1173 41.88C71.1173 41.8 71.1307 41.76 71.1573 41.76C71.6773 41.76 72.0573 41.7267 72.2973 41.66C72.5507 41.5933 72.7173 41.4667 72.7973 41.28C72.8907 41.08 72.9373 40.78 72.9373 40.38V31.12C72.9373 30.72 72.8907 30.4267 72.7973 30.24C72.7173 30.0533 72.5507 29.9267 72.2973 29.86C72.0573 29.78 71.6773 29.74 71.1573 29.74C71.1307 29.74 71.1173 29.7 71.1173 29.62C71.1173 29.54 71.1307 29.5 71.1573 29.5H79.0773C79.1973 29.5 79.2573 29.56 79.2573 29.68L79.2973 32.1C79.2973 32.14 79.2573 32.16 79.1773 32.16C79.1107 32.16 79.0773 32.14 79.0773 32.1C79.0773 31.42 78.8973 30.88 78.5373 30.48C78.1773 30.08 77.704 29.88 77.1173 29.88H75.7373C75.2307 29.88 74.8573 29.9133 74.6173 29.98C74.3773 30.0467 74.2107 30.1733 74.1173 30.36C74.0373 30.5467 73.9973 30.84 73.9973 31.24V35.3H76.6373C77.2507 35.3 77.6773 35.2 77.9173 35C78.1573 34.7867 78.2773 34.4267 78.2773 33.92C78.2773 33.8933 78.3173 33.88 78.3973 33.88C78.4773 33.88 78.5173 33.8933 78.5173 33.92L78.4973 35.5C78.4973 35.8867 78.504 36.1733 78.5173 36.36L78.5373 37.3C78.5373 37.3267 78.4973 37.34 78.4173 37.34C78.3373 37.34 78.2973 37.3267 78.2973 37.3C78.2973 36.7 78.1707 36.28 77.9173 36.04C77.664 35.8 77.2173 35.68 76.5773 35.68H73.9973V40.3C73.9973 40.6867 74.0373 40.9733 74.1173 41.16C74.2107 41.3333 74.3707 41.4533 74.5973 41.52C74.8373 41.5867 75.2173 41.62 75.7373 41.62H77.5773C78.1107 41.62 78.564 41.3867 78.9373 40.92C79.324 40.4533 79.5707 39.84 79.6773 39.08ZM98.4614 41.76C98.5014 41.76 98.5214 41.8 98.5214 41.88C98.5214 41.96 98.5014 42 98.4614 42H96.1414C95.7947 42 95.1481 41.4267 94.2014 40.28C93.2547 39.12 92.1081 37.52 90.7614 35.48C90.3614 35.5867 89.9547 35.64 89.5414 35.64C89.3147 35.64 89.0281 35.6267 88.6814 35.6V40.38C88.6814 40.7933 88.7214 41.0933 88.8014 41.28C88.8947 41.4667 89.0614 41.5933 89.3014 41.66C89.5414 41.7267 89.9281 41.76 90.4614 41.76C90.5014 41.76 90.5214 41.8 90.5214 41.88C90.5214 41.96 90.5014 42 90.4614 42C90.0614 42 89.7414 41.9933 89.5014 41.98L88.1414 41.96L86.8214 41.98C86.5814 41.9933 86.2481 42 85.8214 42C85.7947 42 85.7814 41.96 85.7814 41.88C85.7814 41.8 85.7947 41.76 85.8214 41.76C86.3547 41.76 86.7414 41.7267 86.9814 41.66C87.2347 41.5933 87.4081 41.4667 87.5014 41.28C87.5947 41.08 87.6414 40.78 87.6414 40.38V31.12C87.6414 30.72 87.5947 30.4267 87.5014 30.24C87.4214 30.0533 87.2547 29.9267 87.0014 29.86C86.7614 29.78 86.3814 29.74 85.8614 29.74C85.8214 29.74 85.8014 29.7 85.8014 29.62C85.8014 29.54 85.8214 29.5 85.8614 29.5L86.8214 29.52C87.3547 29.5467 87.7947 29.56 88.1414 29.56C88.3814 29.56 88.6081 29.5533 88.8214 29.54C89.0347 29.5267 89.2214 29.5133 89.3814 29.5C89.7947 29.46 90.1614 29.44 90.4814 29.44C91.5347 29.44 92.3414 29.66 92.9014 30.1C93.4614 30.54 93.7414 31.1533 93.7414 31.94C93.7414 32.58 93.5547 33.1867 93.1814 33.76C92.8081 34.32 92.3147 34.7667 91.7014 35.1C92.8614 36.8067 93.8281 38.1333 94.6014 39.08C95.3747 40.0267 96.0614 40.7133 96.6614 41.14C97.2747 41.5533 97.8747 41.76 98.4614 41.76ZM88.6814 35.12C89.1881 35.1733 89.5881 35.2 89.8814 35.2C90.8547 35.2 91.5547 35 91.9814 34.6C92.4081 34.1867 92.6214 33.5267 92.6214 32.62C92.6214 31.6067 92.3814 30.8667 91.9014 30.4C91.4347 29.9333 90.8081 29.7 90.0214 29.7C89.6481 29.7 89.3747 29.7267 89.2014 29.78C89.0281 29.8333 88.8947 29.96 88.8014 30.16C88.7214 30.36 88.6814 30.6933 88.6814 31.16V35.12Z" fill="white"/>
<path d="M13.56 16.3C13.56 16.6867 13.6 16.9733 13.68 17.16C13.7733 17.3333 13.9333 17.4533 14.16 17.52C14.4 17.5867 14.7733 17.62 15.28 17.62H17.84C19.16 17.62 19.94 16.7733 20.18 15.08C20.18 15.04 20.2133 15.0267 20.28 15.04C20.36 15.04 20.4 15.06 20.4 15.1C20.28 16.1533 20.22 17.02 20.22 17.7C20.22 17.8067 20.2 17.8867 20.16 17.94C20.12 17.98 20.04 18 19.92 18H10.72C10.6933 18 10.68 17.96 10.68 17.88C10.68 17.8 10.6933 17.76 10.72 17.76C11.24 17.76 11.62 17.7267 11.86 17.66C12.1133 17.5933 12.28 17.4667 12.36 17.28C12.4533 17.08 12.5 16.78 12.5 16.38V7.12C12.5 6.72 12.4533 6.42667 12.36 6.24C12.28 6.05333 12.1133 5.92667 11.86 5.86C11.62 5.78 11.24 5.74 10.72 5.74C10.6933 5.74 10.68 5.7 10.68 5.62C10.68 5.54 10.6933 5.5 10.72 5.5L11.7 5.52C12.26 5.54667 12.7 5.56 13.02 5.56C13.38 5.56 13.84 5.54667 14.4 5.52L15.34 5.5C15.3667 5.5 15.38 5.54 15.38 5.62C15.38 5.7 15.3667 5.74 15.34 5.74C14.82 5.74 14.4333 5.78 14.18 5.86C13.94 5.92667 13.7733 6.06 13.68 6.26C13.6 6.44667 13.56 6.74 13.56 7.14V16.3ZM31.9255 18.24C30.6855 18.24 29.5788 17.9533 28.6055 17.38C27.6455 16.7933 26.8988 16.0067 26.3655 15.02C25.8455 14.02 25.5855 12.9333 25.5855 11.76C25.5855 10.3867 25.9321 9.21333 26.6255 8.24C27.3188 7.25333 28.2055 6.51333 29.2855 6.02C30.3788 5.52667 31.4921 5.28 32.6255 5.28C33.8921 5.28 35.0055 5.58 35.9655 6.18C36.9255 6.76667 37.6588 7.54667 38.1655 8.52C38.6855 9.49333 38.9455 10.5267 38.9455 11.62C38.9455 12.8333 38.6255 13.9467 37.9855 14.96C37.3455 15.9733 36.4855 16.7733 35.4055 17.36C34.3388 17.9467 33.1788 18.24 31.9255 18.24ZM32.6455 17.84C33.5921 17.84 34.4455 17.62 35.2055 17.18C35.9655 16.74 36.5655 16.0933 37.0055 15.24C37.4455 14.3867 37.6655 13.3667 37.6655 12.18C37.6655 10.9267 37.4188 9.81333 36.9255 8.84C36.4455 7.85333 35.7588 7.08667 34.8655 6.54C33.9855 5.99333 32.9588 5.72 31.7855 5.72C30.2388 5.72 29.0321 6.2 28.1655 7.16C27.2988 8.12 26.8655 9.42667 26.8655 11.08C26.8655 12.32 27.1055 13.46 27.5855 14.5C28.0788 15.5267 28.7655 16.34 29.6455 16.94C30.5255 17.54 31.5255 17.84 32.6455 17.84ZM56.8492 5.5C56.8892 5.5 56.9092 5.54 56.9092 5.62C56.9092 5.7 56.8892 5.74 56.8492 5.74C56.3959 5.74 56.0159 5.84 55.7092 6.04C55.4159 6.22667 55.1559 6.58667 54.9292 7.12L50.5292 17.98C50.5159 18.0333 50.4426 18.06 50.3092 18.06C50.2026 18.06 50.1292 18.0333 50.0892 17.98L45.1492 7.16C44.9226 6.64 44.6759 6.27333 44.4092 6.06C44.1559 5.84667 43.8226 5.74 43.4092 5.74C43.3692 5.74 43.3492 5.7 43.3492 5.62C43.3492 5.54 43.3692 5.5 43.4092 5.5L44.2692 5.52C44.6426 5.54667 44.9226 5.56 45.1092 5.56C45.4959 5.56 45.9559 5.54667 46.4892 5.52L47.3492 5.5C47.3892 5.5 47.4092 5.54 47.4092 5.62C47.4092 5.7 47.3892 5.74 47.3492 5.74C46.9359 5.74 46.6226 5.78667 46.4092 5.88C46.2092 5.97333 46.1092 6.13333 46.1092 6.36C46.1092 6.52 46.1692 6.72 46.2892 6.96L50.6492 16.58L54.5092 7C54.6026 6.77333 54.6492 6.58 54.6492 6.42C54.6492 6.18 54.5226 6.00667 54.2692 5.9C54.0292 5.79333 53.6292 5.74 53.0692 5.74C53.0292 5.74 53.0092 5.7 53.0092 5.62C53.0092 5.54 53.0292 5.5 53.0692 5.5L53.8692 5.52C54.3226 5.54667 54.7226 5.56 55.0692 5.56C55.3492 5.56 55.6626 5.54667 56.0092 5.52L56.8492 5.5ZM70.1891 15.08C70.1891 15.04 70.2291 15.0267 70.3091 15.04C70.3891 15.04 70.4291 15.06 70.4291 15.1C70.3091 15.94 70.2491 16.8067 70.2491 17.7C70.2491 17.8067 70.2224 17.8867 70.1691 17.94C70.1291 17.98 70.0491 18 69.9291 18H61.6691C61.6424 18 61.6291 17.96 61.6291 17.88C61.6291 17.8 61.6424 17.76 61.6691 17.76C62.1891 17.76 62.5691 17.7267 62.8091 17.66C63.0624 17.5933 63.2291 17.4667 63.3091 17.28C63.4024 17.08 63.4491 16.78 63.4491 16.38V7.12C63.4491 6.72 63.4024 6.42667 63.3091 6.24C63.2291 6.05333 63.0624 5.92667 62.8091 5.86C62.5691 5.78 62.1891 5.74 61.6691 5.74C61.6424 5.74 61.6291 5.7 61.6291 5.62C61.6291 5.54 61.6424 5.5 61.6691 5.5H69.5891C69.7091 5.5 69.7691 5.56 69.7691 5.68L69.8091 8.1C69.8091 8.14 69.7691 8.16 69.6891 8.16C69.6224 8.16 69.5891 8.14 69.5891 8.1C69.5891 7.42 69.4091 6.88 69.0491 6.48C68.6891 6.08 68.2157 5.88 67.6291 5.88H66.2491C65.7424 5.88 65.3691 5.91333 65.1291 5.98C64.8891 6.04667 64.7224 6.17333 64.6291 6.36C64.5491 6.54667 64.5091 6.84 64.5091 7.24V11.3H67.1491C67.7624 11.3 68.1891 11.2 68.4291 11C68.6691 10.7867 68.7891 10.4267 68.7891 9.92C68.7891 9.89333 68.8291 9.88 68.9091 9.88C68.9891 9.88 69.0291 9.89333 69.0291 9.92L69.0091 11.5C69.0091 11.8867 69.0157 12.1733 69.0291 12.36L69.0491 13.3C69.0491 13.3267 69.0091 13.34 68.9291 13.34C68.8491 13.34 68.8091 13.3267 68.8091 13.3C68.8091 12.7 68.6824 12.28 68.4291 12.04C68.1757 11.8 67.7291 11.68 67.0891 11.68H64.5091V16.3C64.5091 16.6867 64.5491 16.9733 64.6291 17.16C64.7224 17.3333 64.8824 17.4533 65.1091 17.52C65.3491 17.5867 65.7291 17.62 66.2491 17.62H68.0891C68.6224 17.62 69.0757 17.3867 69.4491 16.92C69.8357 16.4533 70.0824 15.84 70.1891 15.08ZM88.9731 17.76C89.0131 17.76 89.0331 17.8 89.0331 17.88C89.0331 17.96 89.0131 18 88.9731 18H86.6531C86.3065 18 85.6598 17.4267 84.7131 16.28C83.7665 15.12 82.6198 13.52 81.2731 11.48C80.8731 11.5867 80.4665 11.64 80.0531 11.64C79.8265 11.64 79.5398 11.6267 79.1931 11.6V16.38C79.1931 16.7933 79.2331 17.0933 79.3131 17.28C79.4065 17.4667 79.5731 17.5933 79.8131 17.66C80.0531 17.7267 80.4398 17.76 80.9731 17.76C81.0131 17.76 81.0331 17.8 81.0331 17.88C81.0331 17.96 81.0131 18 80.9731 18C80.5731 18 80.2531 17.9933 80.0131 17.98L78.6531 17.96L77.3331 17.98C77.0931 17.9933 76.7598 18 76.3331 18C76.3065 18 76.2931 17.96 76.2931 17.88C76.2931 17.8 76.3065 17.76 76.3331 17.76C76.8665 17.76 77.2531 17.7267 77.4931 17.66C77.7465 17.5933 77.9198 17.4667 78.0131 17.28C78.1065 17.08 78.1531 16.78 78.1531 16.38V7.12C78.1531 6.72 78.1065 6.42667 78.0131 6.24C77.9331 6.05333 77.7665 5.92667 77.5131 5.86C77.2731 5.78 76.8931 5.74 76.3731 5.74C76.3331 5.74 76.3131 5.7 76.3131 5.62C76.3131 5.54 76.3331 5.5 76.3731 5.5L77.3331 5.52C77.8665 5.54667 78.3065 5.56 78.6531 5.56C78.8931 5.56 79.1198 5.55333 79.3331 5.54C79.5465 5.52667 79.7331 5.51333 79.8931 5.5C80.3065 5.46 80.6731 5.44 80.9931 5.44C82.0465 5.44 82.8531 5.66 83.4131 6.1C83.9731 6.54 84.2531 7.15333 84.2531 7.94C84.2531 8.58 84.0665 9.18667 83.6931 9.76C83.3198 10.32 82.8265 10.7667 82.2131 11.1C83.3731 12.8067 84.3398 14.1333 85.1131 15.08C85.8865 16.0267 86.5731 16.7133 87.1731 17.14C87.7865 17.5533 88.3865 17.76 88.9731 17.76ZM79.1931 11.12C79.6998 11.1733 80.0998 11.2 80.3931 11.2C81.3665 11.2 82.0665 11 82.4931 10.6C82.9198 10.1867 83.1331 9.52667 83.1331 8.62C83.1331 7.60667 82.8931 6.86667 82.4131 6.4C81.9465 5.93333 81.3198 5.7 80.5331 5.7C80.1598 5.7 79.8865 5.72667 79.7131 5.78C79.5398 5.83333 79.4065 5.96 79.3131 6.16C79.2331 6.36 79.1931 6.69333 79.1931 7.16V11.12Z" fill="white"/>
</svg>
