<svg width="41" height="41" viewBox="0 0 41 41" fill="none" xmlns="http://www.w3.org/2000/svg">
<g clip-path="url(#clip0_221_1506)">
<path d="M15.3756 32.0312L23.9215 40.5772C24.1602 40.8139 24.4823 40.9473 24.8184 40.9487C24.9905 40.9519 25.1611 40.9169 25.3181 40.8462C25.5497 40.7482 25.7473 40.5841 25.8863 40.3745C26.0252 40.1649 26.0995 39.919 26.0997 39.6675V16.7587L40.629 2.19094C40.8068 2.01076 40.9273 1.78197 40.9751 1.53342C41.023 1.28487 40.9962 1.0277 40.8981 0.794375C40.802 0.560394 40.6388 0.360101 40.429 0.218736C40.2192 0.077372 39.9723 0.00126265 39.7194 0L1.28186 0C1.0289 0.00126265 0.781987 0.077372 0.57222 0.218736C0.362454 0.360101 0.199225 0.560394 0.103106 0.794375C0.00498853 1.0277 -0.0218186 1.28487 0.0260669 1.53342C0.0739525 1.78197 0.194385 2.01076 0.372168 2.19094L14.9528 16.7587V31.1728C14.9776 31.5028 15.1291 31.8104 15.3756 32.0312ZM4.36967 2.5625H36.6315L23.819 15.375C23.698 15.4937 23.6017 15.6352 23.5357 15.7913C23.4697 15.9475 23.4354 16.1152 23.4347 16.2847V36.6309L17.464 30.6475V16.2334C17.4633 16.0639 17.429 15.8962 17.363 15.7401C17.297 15.5839 17.2007 15.4424 17.0797 15.3238L4.36967 2.5625Z" fill="black"/>
</g>
<defs>
<clipPath id="clip0_221_1506">
<rect width="41" height="41" fill="white"/>
</clipPath>
</defs>
</svg>
