<svg width="829" height="968" viewBox="0 0 829 968" fill="none" xmlns="http://www.w3.org/2000/svg">
<g filter="url(#filter0_f_31_1513)">
<path d="M443.674 532.673C398.617 602.513 295.319 766.165 198.735 703.855C102.152 641.545 48.8577 376.869 93.9149 307.028C138.972 237.187 253.794 231.083 350.378 293.393C446.961 355.703 488.732 462.832 443.674 532.673Z" fill="#7D2253"/>
</g>
<g filter="url(#filter1_f_31_1513)">
<path d="M565.079 553.353C534.914 600.109 465.628 709.585 408.831 672.942C352.034 636.3 329.234 467.416 359.398 420.66C389.563 373.903 460.059 365.704 516.856 402.347C573.653 438.989 595.243 506.597 565.079 553.353Z" fill="#43FFD2"/>
</g>
<defs>
<filter id="filter0_f_31_1513" x="-172.302" y="0.377441" width="884.116" height="967.356" filterUnits="userSpaceOnUse" color-interpolation-filters="sRGB">
<feFlood flood-opacity="0" result="BackgroundImageFix"/>
<feBlend mode="normal" in="SourceGraphic" in2="BackgroundImageFix" result="shape"/>
<feGaussianBlur stdDeviation="125" result="effect1_foregroundBlur_31_1513"/>
</filter>
<filter id="filter1_f_31_1513" x="96.0381" y="129.442" width="732.667" height="800.872" filterUnits="userSpaceOnUse" color-interpolation-filters="sRGB">
<feFlood flood-opacity="0" result="BackgroundImageFix"/>
<feBlend mode="normal" in="SourceGraphic" in2="BackgroundImageFix" result="shape"/>
<feGaussianBlur stdDeviation="125" result="effect1_foregroundBlur_31_1513"/>
</filter>
</defs>
</svg>
